<svg xmlns="http://www.w3.org/2000/svg" width="190" height="37" viewBox="0 0 190 37">
    <defs>
        <filter id="dxqdlimjaa">
            <feColorMatrix in="SourceGraphic" values="0 0 0 0 1.000000 0 0 0 0 1.000000 0 0 0 0 1.000000 0 0 0 1.000000 0"/>
        </filter>
    </defs>
    <g fill="none" fill-rule="evenodd">
        <g filter="url(#dxqdlimjaa)" transform="translate(-40 -24)">
            <g>
                <path fill="#FEFEFE" d="M43.116 33.087c-5.437 0-9.845-4.413-9.845-9.856s4.408-9.855 9.845-9.855 9.845 4.412 9.845 9.855c0 5.443-4.408 9.856-9.845 9.856m0-23.544c-3.868 0-7.358 1.61-9.845 4.194V3.054L29.442 0v23.231c0 7.56 6.122 13.688 13.674 13.688S56.79 30.791 56.79 23.231c0-7.56-6.122-13.688-13.674-13.688M77.736 31.602c-1.505.936-3.275 1.485-5.178 1.485-5.437 0-9.845-4.412-9.845-9.856 0-5.443 4.408-9.855 9.845-9.855 1.903 0 3.673.55 5.178 1.485.804-1.04 1.754-1.96 2.819-2.73-2.25-1.626-5.01-2.588-7.997-2.588-7.552 0-13.674 6.129-13.674 13.688 0 7.56 6.122 13.689 13.674 13.689 2.987 0 5.748-.962 7.997-2.588-1.065-.77-2.015-1.69-2.819-2.73M13.674 33.087c-5.438 0-9.845-4.413-9.845-9.856s4.407-9.855 9.845-9.855c5.437 0 9.845 4.412 9.845 9.855 0 5.443-4.408 9.856-9.845 9.856m0-23.544C6.122 9.543 0 15.672 0 23.231c0 7.56 6.122 13.688 13.674 13.688 3.868 0 7.358-1.61 9.845-4.194v.072l3.829 3.054V17.255l-3.829-3.517c-2.487-2.584-5.977-4.195-9.845-4.195M92.715 20.51c-1.05.927-1.647 2.076-1.789 3.448v1.149c.142 1.354.738 2.494 1.789 3.42 1.05.945 2.286 1.417 3.71 1.417 1.513 0 2.804-.534 3.872-1.603 1.085-1.051 1.629-2.316 1.629-3.795 0-1.515-.544-2.797-1.629-3.85-1.068-1.05-2.359-1.576-3.871-1.576-1.425 0-2.661.464-3.711 1.39m.614 9.728c-.98-.552-1.78-1.3-2.403-2.245v7.056h-1.201V18.292h1.201v2.752c.623-.944 1.424-1.683 2.403-2.218 1.014-.552 2.091-.828 3.23-.828 1.833 0 3.4.632 4.7 1.897 1.316 1.283 1.975 2.833 1.975 4.65 0 1.782-.66 3.314-1.976 4.597-1.317 1.301-2.883 1.951-4.699 1.951-1.157 0-2.234-.285-3.23-.855M108.6 20.483c-1.086 1.052-1.629 2.325-1.629 3.822 0 1.48.543 2.753 1.629 3.822 1.085 1.069 2.403 1.603 3.951 1.603 1.512 0 2.812-.534 3.898-1.603 1.085-1.07 1.629-2.343 1.629-3.822 0-1.497-.544-2.77-1.629-3.822-1.086-1.05-2.386-1.577-3.898-1.577-1.548 0-2.866.526-3.951 1.577zm9.478 7.163c-.641.962-1.451 1.728-2.43 2.298-1.015.606-2.092.909-3.23.909-1.852 0-3.427-.642-4.726-1.925-1.3-1.282-1.949-2.823-1.949-4.623 0-1.818.65-3.368 1.95-4.65 1.298-1.265 2.873-1.898 4.725-1.898 1.138 0 2.215.294 3.23.882.979.588 1.789 1.372 2.43 2.352v-2.86h1.174v12.4h-1.174v-2.885zM125.5 21.793c-.214.57-.321 1.31-.321 2.218v6.654h-1.201V18.158h1.201v2.299c.534-.873 1.219-1.533 2.056-1.978.765-.392 1.592-.588 2.483-.588v1.176c-.66.09-1.148.178-1.469.267-.445.125-.854.33-1.228.615-.73.534-1.237 1.149-1.522 1.844M135.458 30.692L134.176 30.692 134.176 19.494 131.106 19.494 131.106 18.318 134.176 18.318 134.176 13.508 135.458 13.508 135.458 18.318 138.875 18.318 138.875 19.494 135.458 19.494zM152.49 24.519c0-.749-.053-1.354-.16-1.818-.124-.641-.356-1.202-.694-1.683-.445-.606-1.032-1.078-1.762-1.417-.677-.303-1.397-.454-2.162-.454-.712 0-1.406.16-2.083.481-.676.339-1.219.784-1.628 1.336-.374.446-.614.998-.721 1.657-.053.41-.08 1.042-.08 1.898v6.173h-1.255V18.506h1.255v1.683c.57-.73 1.308-1.291 2.216-1.683.765-.321 1.557-.482 2.376-.482.854 0 1.682.17 2.483.508.818.34 1.512.838 2.082 1.497.516.588.881 1.274 1.095 2.058.195.66.294 1.47.294 2.432v6.173h-1.255V24.52zM160.286 20.136c-.997.873-1.646 2.058-1.949 3.554h10.546c-.178-1.372-.784-2.52-1.815-3.447-.997-.891-2.128-1.337-3.391-1.337-1.3 0-2.43.41-3.39 1.23m-.214 8.285c.996.944 2.144 1.416 3.444 1.416 1.138 0 2.126-.25 2.963-.748.801-.481 1.46-1.185 1.976-2.112h1.442c-.677 1.32-1.567 2.317-2.67 2.994-1.068.66-2.252.989-3.551.989-1.852 0-3.417-.642-4.699-1.925-1.264-1.264-1.895-2.815-1.895-4.65 0-1.853.631-3.42 1.895-4.704 1.264-1.282 2.82-1.924 4.672-1.924.979 0 1.913.214 2.804.642.854.41 1.61 1.006 2.269 1.79.498.624.863 1.31 1.094 2.058.178.641.303 1.461.374 2.459h-11.827c.089 1.496.658 2.735 1.709 3.715M175.317 21.793c-.213.57-.32 1.31-.32 2.218v6.654h-1.202V18.158h1.202v2.299c.534-.873 1.219-1.533 2.055-1.978.765-.392 1.593-.588 2.483-.588v1.176c-.658.09-1.148.178-1.468.267-.445.125-.854.33-1.228.615-.73.534-1.238 1.149-1.522 1.844M182.792 29.864c-.783-.677-1.219-1.524-1.308-2.539h1.282c.106.713.436 1.3.988 1.764.55.463 1.218.695 2.002.695.8 0 1.468-.232 2.002-.695.57-.463.854-1.051.854-1.764 0-.802-.33-1.443-.987-1.924-.463-.338-1.14-.624-2.03-.855-.551-.143-1.014-.285-1.388-.428-.445-.196-.819-.418-1.12-.668-.357-.285-.624-.624-.802-1.016-.178-.41-.267-.828-.267-1.256 0-.962.374-1.764 1.121-2.405.748-.624 1.656-.936 2.724-.936.89 0 1.672.268 2.349.802.694.553 1.13 1.265 1.308 2.138h-1.281c-.125-.588-.427-1.042-.908-1.363-.463-.303-1.015-.454-1.655-.454-.677 0-1.246.196-1.709.588-.445.41-.667.909-.667 1.496 0 .695.275 1.239.827 1.63.356.268 1.005.535 1.95.803 1.263.374 2.17.775 2.722 1.202.748.57 1.122 1.354 1.122 2.352 0 1.14-.419 2.076-1.255 2.806-.801.713-1.833 1.069-3.097 1.069-1.068 0-1.994-.347-2.777-1.042" transform="translate(40 24)"/>
            </g>
        </g>
    </g>
</svg>
